<svg xmlns="http://www.w3.org/2000/svg" viewBox="0 0 600 400">
  <!-- Chart -->
  <g transform="translate(50, 250)">
    <rect x="0" y="-20" width="15" height="20" fill="none" stroke="#7ed56f" stroke-width="2" />
    <rect x="20" y="-40" width="15" height="40" fill="none" stroke="#7ed56f" stroke-width="2" />
    <rect x="40" y="-60" width="15" height="60" fill="none" stroke="#7ed56f" stroke-width="2" />
    <rect x="60" y="-90" width="15" height="90" fill="none" stroke="#7ed56f" stroke-width="2" />
    <line x1="-10" y1="0" x2="85" y2="0" stroke="#7ed56f" stroke-width="2" />
    <line x1="0" y1="10" x2="0" y2="-100" stroke="#7ed56f" stroke-width="2" />
    <path d="M85,-30 L95,-20" stroke="#7ed56f" stroke-width="2" />
    <path d="M85,-30 L95,-40" stroke="#7ed56f" stroke-width="2" />
  </g>
  
  <!-- Lightbulb -->
  <g transform="translate(250, 150)">
    <circle cx="0" cy="0" r="30" fill="none" stroke="#7ed56f" stroke-width="2" />
    <path d="M-10,0 L10,0 M0,-10 L0,10" stroke="#7ed56f" stroke-width="2" />
    <path d="M-20,-20 L-30,-30 M20,-20 L30,-30 M-20,20 L-30,30 M20,20 L30,30" stroke="#7ed56f" stroke-width="2" opacity="0.7" />
  </g>
  
  <!-- Graduation Cap -->
  <g transform="translate(380, 180)">
    <path d="M-40,0 L40,0 L0,-30 Z" fill="none" stroke="#7ed56f" stroke-width="2" />
    <rect x="-10" y="0" width="20" height="15" fill="none" stroke="#7ed56f" stroke-width="2" />
    <line x1="0" y1="15" x2="0" y2="40" stroke="#7ed56f" stroke-width="2" />
    <circle cx="0" cy="40" r="5" fill="none" stroke="#7ed56f" stroke-width="2" />
  </g>
  
  <!-- Target -->
  <g transform="translate(100, 350)">
    <circle cx="0" cy="0" r="30" fill="none" stroke="#7ed56f" stroke-width="2" />
    <circle cx="0" cy="0" r="20" fill="none" stroke="#7ed56f" stroke-width="2" />
    <circle cx="0" cy="0" r="10" fill="none" stroke="#7ed56f" stroke-width="2" />
    <circle cx="0" cy="0" r="3" fill="#7ed56f" />
    <line x1="-40" y1="0" x2="40" y2="0" stroke="#7ed56f" stroke-width="1" />
    <line x1="0" y1="-40" x2="0" y2="40" stroke="#7ed56f" stroke-width="1" />
  </g>
  
  <!-- Globe -->
  <g transform="translate(400, 350)">
    <circle cx="0" cy="0" r="30" fill="none" stroke="#7ed56f" stroke-width="2" />
    <ellipse cx="0" cy="0" rx="30" ry="15" fill="none" stroke="#7ed56f" stroke-width="1" />
    <line x1="-30" y1="0" x2="30" y2="0" stroke="#7ed56f" stroke-width="1" />
    <line x1="0" y1="-30" x2="0" y2="30" stroke="#7ed56f" stroke-width="1" />
  </g>
  
  <!-- Star -->
  <g transform="translate(320, 100)">
    <path d="M0,-20 L5,-5 L20,-5 L10,5 L15,20 L0,10 L-15,20 L-10,5 L-20,-5 L-5,-5 Z" fill="none" stroke="#7ed56f" stroke-width="2" />
  </g>
</svg>
